<?xml version="1.0" standalone="no"?>
<!DOCTYPE svg PUBLIC "-//W3C//DTD SVG 1.1//EN" "http://www.w3.org/Graphics/SVG/1.1/DTD/svg11.dtd" >
<svg xmlns="http://www.w3.org/2000/svg">
<metadata>Generated by IcoMoon</metadata>
<defs>
<font id="icomoon" horiz-adv-x="1024">
<font-face units-per-em="1024" ascent="960" descent="-64" />
<missing-glyph horiz-adv-x="1024" />
<glyph unicode="&#x20;" horiz-adv-x="512" d="" />
<glyph unicode="&#xe600;" glyph-name="actions_icon_big" horiz-adv-x="868" d="M619.152 716.522v-35.131h38.102v-179.13l-285.763-331.13-29.767 29.217-27.385-29.217-190.508 194.783 304.813 350.609h190.508zM150.026 365.913l164.313-166.783 14.288 14.609 13.097 14.609 258.377 301.913v165.739h-163.123l-286.952-330.086zM371.491 199.13l266.712 311.652v150.087h-19.051v-139.13l-263.14-308 15.479-14.609zM542.949 599.652v0 0c0-11.479-3.572-20.696-10.716-28-7.144-7.305-16.329-10.957-27.385-10.957-11.226 0-20.242 3.652-27.385 10.957-7.145 7.304-10.716 16.521-10.716 28 0 11.304 3.572 20.696 10.716 28s16.159 10.957 27.385 10.957c11.056 0 20.242-3.652 27.385-10.957 7.145-7.304 10.716-16.696 10.716-28zM868.174 704l-435.448 256-432.726-256v-509.217l432.726-256 435.448 256v509.217zM504.847 581.217c12.588 0 19.051 6.087 19.051 18.435 0 12.173-6.463 18.434-19.051 18.434-12.758 0-19.051-6.261-19.051-18.434 0-12.348 6.293-18.435 19.051-18.435zM851.845 692.87v-486.957l-419.118-244.87-416.397 244.87v486.957l416.397 244.87 419.118-244.87z" />
<glyph unicode="&#xe601;" horiz-adv-x="1609" d="M0 886.857c0 40.393 32.746 73.143 73.143 73.143h1462.857c40.397 0 73.143-32.75 73.143-73.143v-877.714c0-40.393-32.746-73.143-73.143-73.143h-1462.857c-40.397 0-73.143 32.75-73.143 73.143v877.714z" />
<glyph unicode="&#xe602;" horiz-adv-x="1609" d="M804.195 667.249l-60.595-184.847h122.141l-60.778 184.847h-0.768zM591.876 211.599c-3.716 0-6.733-3.16-6.733-7.062v-78.618c0-3.928 3.017-7.062 6.733-7.062h425.392c3.734 0 6.733 3.134 6.733 7.062v78.618c0 3.902-2.999 7.062-6.733 7.062h-425.392zM804.571 777.143c46.544 0 61.184-33.883 73.403-67.778 5.197-14.373 126.124-350.885 129.744-360.964 0.995-2.812 0.344-7.472-3.95-9.117-4.286-1.66-67.116-26.481-70.572-27.82-3.482-1.302-7.395 0.651-8.675 4.151-1.298 3.474-27.326 76.848-30.281 85.080h-179.16c-2.955-8.232-29.253-81.73-30.46-85.080-1.225-3.365-4.996-5.614-8.664-4.151-3.661 1.492-66.79 26.364-70.594 27.82-3.577 1.393-5.175 5.573-3.924 9.117 4.436 12.617 123.524 343.698 129.605 360.964 11.805 33.375 26.964 67.778 73.527 67.778v0z" />
<glyph unicode="&#xe603;" glyph-name="arrow_down" horiz-adv-x="1317" d="M658.286-64l-658.286 1024h1316.571l-658.286-1024z" />
<glyph unicode="&#xe604;" glyph-name="arrow_dropdown" horiz-adv-x="1434" d="M716.8-64l-716.8 1024h1433.6l-716.8-1024z" />
<glyph unicode="&#xe605;" glyph-name="arrow_left" horiz-adv-x="683" d="M241.778 448.887l389.336-391.999-120.001-120.001-512 512 512 512 120.001-120.001-389.336-391.999z" />
<glyph unicode="&#xe606;" glyph-name="arrow_left_catalog" horiz-adv-x="731" d="M731.429 448l-731.429-512v1024l731.429-512z" />
<glyph unicode="&#xe607;" glyph-name="arrow_right" horiz-adv-x="683" d="M683.554 448.887l-512-512-119.996 120.001 390.218 391.999-390.218 391.999 119.996 120.001 512-512z" />
<glyph unicode="&#xe608;" glyph-name="articles_icon_big" horiz-adv-x="859" d="M636.725 236.152v426.447h-414.612v-426.447h414.612zM203.267 683.122h452.304v-467.492h-452.304v467.492zM580.187 551.292h-226.152v20.523h226.152v-20.523zM580.187 439.984h-226.152v20.523h226.152v-20.523zM580.187 317.546h-226.152v20.523h226.152v-20.523zM316.343 560.684v0 0c0-14.958-6.394-22.262-18.846-22.262-12.62 0-18.846 7.304-18.846 22.262 0 14.783 6.226 22.262 18.846 22.262 12.452 0 18.846-7.479 18.846-22.262zM316.343 449.376v0 0c0-14.958-6.394-22.262-18.846-22.262-12.62 0-18.846 7.304-18.846 22.262 0 14.783 6.226 22.262 18.846 22.262 12.452 0 18.846-7.479 18.846-22.262zM858.839 703.993l-430.765 256.007-428.073-256.007v-509.232l428.073-256.007 430.765 256.007v509.232zM316.343 326.938c0-14.958-6.394-22.262-18.846-22.262-12.62 0-18.846 7.304-18.846 22.262 0 14.783 6.226 22.262 18.846 22.262 12.452 0 18.846-7.479 18.846-22.262zM842.685 692.862v-486.971l-414.612-244.877-411.92 244.877v486.971l411.92 244.877 414.612-244.877z" />
<glyph unicode="&#xe609;" glyph-name="calendar_icon" horiz-adv-x="956" d="M68.267 618.667v-614.4h819.2v614.4h-819.2zM0 823.467c0 37.704 30.563 68.267 68.267 68.267h819.2c37.704 0 68.267-30.563 68.267-68.267v-819.2c0-37.704-30.563-68.267-68.267-68.267h-819.2c-37.704 0-68.267 30.563-68.267 68.267v819.2zM204.8 891.733v-68.267h68.267v68.267h-68.267zM682.667 891.733v-68.267h68.267v68.267h-68.267zM614.4 277.333h136.533v-136.533h-136.533v136.533zM409.6 277.333h136.533v-136.533h-136.533v136.533zM204.8 277.333h136.533v-136.533h-136.533v136.533zM614.4 482.133h136.533v-136.533h-136.533v136.533zM409.6 482.133h136.533v-136.533h-136.533v136.533zM204.8 482.133h136.533v-136.533h-136.533v136.533zM682.667 960h68.267v-68.267h-68.267v68.267zM204.8 960h68.267v-68.267h-68.267v68.267z" />
<glyph unicode="&#xe60a;" glyph-name="cart_icon" horiz-adv-x="1195" d="M426.667 106.667c47.132 0 85.333-38.207 85.333-85.333s-38.201-85.333-85.333-85.333c-47.132 0-85.333 38.207-85.333 85.333s38.201 85.333 85.333 85.333v0 0zM426.667-7.111c15.709 0 28.444 12.735 28.444 28.444s-12.735 28.444-28.444 28.444c-15.709 0-28.444-12.735-28.444-28.444s12.735-28.444 28.444-28.444v0 0zM995.556 106.667c47.132 0 85.333-38.207 85.333-85.333s-38.201-85.333-85.333-85.333c-47.132 0-85.333 38.207-85.333 85.333s38.201 85.333 85.333 85.333v0 0zM995.556-7.111c15.709 0 28.444 12.735 28.444 28.444s-12.735 28.444-28.444 28.444c-15.709 0-28.444-12.735-28.444-28.444s12.735-28.444 28.444-28.444v0 0zM247.997 846.222l-8.376 36.297c-10.053 43.526-52.736 77.481-97.399 77.481h-113.778c-15.709 0-28.444-12.735-28.444-28.444s12.735-28.444 28.444-28.444h113.778c18.175 0 37.877-15.673 41.968-33.389l145.077-628.685c10.053-43.526 52.736-77.481 97.399-77.481h625.778c15.709 0 28.444 12.735 28.444 28.444s-12.735 28.444-28.444 28.444h-625.778c-18.175 0-37.877 15.673-41.968 33.389l-5.497 23.819 734.757 105.704c45.087 6.441 80.708 47.513 80.708 93.088v284.444c0 47.129-38.204 85.333-85.333 85.333h-227.556c-15.709 0-28.444-12.735-28.444-28.444s12.735-28.444 28.444-28.444h227.556c15.71 0 28.444-12.734 28.444-28.444v-284.444c0-17.264-14.804-34.333-31.893-36.774l-739.52-106.39-105.24 456.053h279.319c15.709 0 28.444 12.735 28.444 28.444s-12.735 28.444-28.444 28.444h-292.447zM828.453 650.675c11.028 11.028 29.292 10.643 40.068-0.133 11.101-11.101 11.055-29.147-0.26-40.461l-136.772-136.772c-11.245-11.245-29.407-11.315-40.722 0l-136.772 136.772c-11.245 11.245-11.037 29.685-0.26 40.461 11.101 11.101 29.382 10.819 40.068 0.133l88.898-88.898v313.401c0 15.427 13.186 27.933 28.427 27.933 15.7 0 28.427-12.964 28.427-27.933v-313.401l88.898 88.898z" />
<glyph unicode="&#xe60b;" glyph-name="clock" d="M0 448c0-141.333 49.887-261.999 150.317-362.001 99.774-99.998 220.554-149.999 361.683-149.999s261.909 50.001 361.683 149.999c99.774 100.002 150.317 220.668 150.317 362.001s-50.543 261.999-150.317 362.001c-99.774 99.998-220.554 149.999-361.683 149.999s-261.909-50.001-361.683-149.999c-100.43-100.002-150.317-220.668-150.317-362.001v0 0zM42.010 448c0 129.331 45.951 239.334 137.848 331.332 91.897 92.002 202.174 138.001 332.141 138.001 129.312 0 240.248-45.999 332.146-138.001 91.897-91.998 137.844-202.001 137.844-331.332 0-129.335-45.947-240-137.844-332.002-91.897-91.998-202.834-137.331-332.146-137.331-129.967 0-240.244 45.333-332.141 137.331-91.897 92.002-137.848 202.667-137.848 332.002v0 0zM275.692 448v-42.667h278.318v357.333h-42.010v-314.667h-236.308z" />
<glyph unicode="&#xe60c;" glyph-name="compare_icon_1_1" d="M120.471 598.588v0-481.882c0 0.002 0.002 0 0 0h60.235c-0.002 0 0 0.002 0 0v481.882c0-0.002-0.002 0 0 0h-60.235c0.002 0 0-0.002 0 0v0zM60.235 598.588c0 33.268 26.973 60.235 60.235 60.235h60.235c33.262 0 60.235-26.967 60.235-60.235v-481.882c0-33.268-26.973-60.235-60.235-60.235h-60.235c-33.262 0-60.235 26.967-60.235 60.235v481.882zM361.412 899.765v-783.059c0 0.002 0.002 0 0 0h60.235c-0.002 0 0 0.002 0 0v783.059c0-0.002-0.002 0 0 0h-60.235c0.002 0 0-0.002 0 0zM301.176 899.765c0 33.268 26.973 60.235 60.235 60.235h60.235c33.262 0 60.235-26.967 60.235-60.235v-783.059c0-33.268-26.973-60.235-60.235-60.235h-60.235c-33.262 0-60.235 26.967-60.235 60.235v783.059zM602.353 357.647v-240.941c0 0.002 0.002 0 0 0h60.235c-0.002 0 0 0.002 0 0v240.941c0-0.002-0.002 0 0 0h-60.235c0.002 0 0-0.002 0 0zM542.118 357.647c0 33.268 26.973 60.235 60.235 60.235h60.235c33.262 0 60.235-26.967 60.235-60.235v-240.941c0-33.268-26.973-60.235-60.235-60.235h-60.235c-33.262 0-60.235 26.967-60.235 60.235v240.941zM843.294 658.824v-542.118c0 0.002 0.002 0 0 0h60.235c-0.002 0 0 0.002 0 0v542.118c0-0.002-0.002 0 0 0h-60.235c0.002 0 0-0.002 0 0zM783.059 658.824c0 33.268 26.973 60.235 60.235 60.235h60.235c33.262 0 60.235-26.967 60.235-60.235v-542.118c0-33.268-26.973-60.235-60.235-60.235h-60.235c-33.262 0-60.235 26.967-60.235 60.235v542.118zM0-3.765h1024v-60.235h-1024v60.235z" />
<glyph unicode="&#xe60d;" glyph-name="compare_icon_1_2" d="M60.235 598.588c0 33.268 26.973 60.235 60.235 60.235h60.235c33.262 0 60.235-26.967 60.235-60.235v-481.882c0-33.268-26.973-60.235-60.235-60.235h-60.235c-33.262 0-60.235 26.967-60.235 60.235v481.882zM301.176 899.765c0 33.268 26.973 60.235 60.235 60.235h60.235c33.262 0 60.235-26.967 60.235-60.235v-783.059c0-33.268-26.973-60.235-60.235-60.235h-60.235c-33.262 0-60.235 26.967-60.235 60.235v783.059zM542.118 357.647c0 33.268 26.973 60.235 60.235 60.235h60.235c33.262 0 60.235-26.967 60.235-60.235v-240.941c0-33.268-26.973-60.235-60.235-60.235h-60.235c-33.262 0-60.235 26.967-60.235 60.235v240.941zM783.059 658.824c0 33.268 26.973 60.235 60.235 60.235h60.235c33.262 0 60.235-26.967 60.235-60.235v-542.118c0-33.268-26.973-60.235-60.235-60.235h-60.235c-33.262 0-60.235 26.967-60.235 60.235v542.118zM0-3.765h1024v-60.235h-1024v60.235z" />
<glyph unicode="&#xe60e;" glyph-name="delivery_icon_1_2" horiz-adv-x="1365" d="M1297.067 72.533c37.697 0 68.267 30.563 68.267 68.267v273.067c0 37.704-21.606 89.88-48.278 116.538l-176.51 176.524c-26.672 26.658-78.848 48.271-116.545 48.271h-204.8v136.533c0 37.704-30.57 68.267-68.267 68.267h-682.667c-37.697 0-68.267-30.563-68.267-68.267v-750.933c0-37.704 30.57-68.267 68.267-68.267h139.947c15.813-77.9 84.686-136.533 167.253-136.533s151.439 58.633 167.253 136.533h348.161c15.813-77.9 84.686-136.533 167.253-136.533s151.439 58.633 167.253 136.533h71.681zM1225.386 140.8c-15.813 77.9-84.686 136.533-167.253 136.533s-151.439-58.633-167.253-136.533h-71.681v546.133h136.533v-273.067c0-37.704 30.57-68.267 68.267-68.267h273.066c-0.001-80.882-0.001-204.8 0-204.8h-71.681zM1024 413.867v273.067c19.592 0 54.412-14.422 68.285-28.289l176.496-176.51c13.869-13.862 28.285-48.666 28.285-68.268 0 0-273.067 0.002-273.067 0zM68.267 140.8c0 0 0.002 750.933 0 750.933 0 0 682.667-0.002 682.667 0v-750.933c0 0-91.874 0-208.214 0.001-15.813 77.9-84.686 136.533-167.253 136.533s-151.439-58.633-167.252-136.532c-82.061 0-139.948 0-139.948-0.001zM273.067 106.667c0 56.553 45.847 102.4 102.4 102.4s102.4-45.847 102.4-102.4c0-56.553-45.847-102.4-102.4-102.4s-102.4 45.847-102.4 102.4zM955.733 106.667c0 56.553 45.847 102.4 102.4 102.4s102.4-45.847 102.4-102.4c0-56.553-45.847-102.4-102.4-102.4s-102.4 45.847-102.4 102.4z" />
<glyph unicode="&#xe60f;" glyph-name="directions" horiz-adv-x="1069" d="M1068.522 766.578l-238.931 193.422-28.199-31.999 172.892-138.668h-128.37c-55.653 0-106.852-9.243-154.342-27.734-47.49-18.487-86.075-37.688-114.27-57.599-28.94-19.911-60.849-52.625-94.98-98.136-34.136-46.221-57.14-78.22-68.267-96.711-11.132-18.487-31.908-55.464-63.076-110.219-2.223-2.134-4.45-5.689-7.418-10.668l-6.677-12.802c-50.458-86.753-100.916-145.777-152.12-177.066-51.199-31.289-112.788-46.221-184.764-46.221v-45.511c74.203 0 138.761 14.932 195.155 44.801 66.78 36.978 126.888 103.82 180.314 199.111 1.482 3.554 3.709 7.819 6.677 13.508 2.968 4.979 5.195 8.533 7.418 10.668 33.395 56.889 54.172 92.447 62.33 107.379 8.164 14.932 29.681 45.511 63.817 91.732 34.131 45.511 63.812 76.8 88.303 92.447 23.745 15.642 57.876 32.709 101.657 50.485 43.035 17.781 89.784 27.025 140.242 27.025h128.37l-172.892-135.113 28.199-31.289 238.931 189.158zM195.155 743.822c-56.394 29.864-120.952 45.511-195.155 45.511v-45.511c71.976 0 133.565-15.647 184.764-46.221 51.204-31.289 101.662-89.602 152.12-175.646 1.482-3.554 3.709-7.823 6.677-12.802 2.968-5.689 5.195-9.243 7.418-10.663 0-1.425 0-2.134 0.746-2.134 0.741 0 1.482-2.134 1.482-5.689 1.486 3.554 5.195 10.668 11.132 20.621 5.936 9.958 10.386 18.491 14.1 24.18v4.974l-2.968 2.844c-53.426 96.001-113.534 162.848-180.314 200.536v0 0zM801.391 285.866l172.892-133.689h-128.37c-92.752 0-168.442 22.046-227.058 66.842-58.621 44.801-112.788 106.669-162.506 185.603-2.227-2.134-5.195-6.403-8.904-13.512-3.709-7.113-5.936-11.378-7.423-12.802 0-2.13-1.482-4.974-2.968-9.243-2.223-4.264-4.45-7.823-5.936-9.243 109.82-169.247 247.84-253.156 414.795-253.156h128.37l-172.892-138.668 28.199-31.999 238.931 193.422-238.931 187.733-28.199-31.289z" />
<glyph unicode="&#xe610;" glyph-name="facebook" horiz-adv-x="901" d="M431.030 955.341c10.785 6.214 28.275 6.214 39.059 0l411.501-236.806c10.785-6.205 19.53-21.334 19.53-33.784v-473.502c0-12.45-8.745-27.578-19.53-33.784l-411.501-236.806c-10.785-6.214-28.275-6.214-39.059 0l-411.501 236.806c-10.785 6.205-19.53 21.334-19.53 33.784v473.502c0 12.45 8.745 27.578 19.53 33.784l411.501 236.806zM484.27 555.817c0 9.865 1.759 16.912 5.632 21.139 3.871 4.227 12.671 6.341 26.049 6.341h35.901v67.641h-59.134c-34.497 0-59.136-7.752-73.921-22.899-14.785-15.149-22.176-37.345-22.176-66.937v-45.447h-47.52v-67.641h47.52v-202.924h87.648v202.924h59.134l8.448 67.641h-67.582v40.161z" />
<glyph unicode="&#xe611;" glyph-name="google" horiz-adv-x="901" d="M431.030 955.341c10.785 6.214 28.275 6.214 39.059 0l411.501-236.806c10.785-6.205 19.53-21.334 19.53-33.784v-473.502c0-12.45-8.745-27.578-19.53-33.784l-411.501-236.806c-10.785-6.214-28.275-6.214-39.059 0l-411.501 236.806c-10.785 6.205-19.53 21.334-19.53 33.784v473.502c0 12.45 8.745 27.578 19.53 33.784l411.501 236.806zM439.353 422.3c-7.041 5.636-10.562 10.92-10.562 15.854 0 4.227 3.873 10.217 11.616 18.319v1.057c9.857 6.341 17.25 11.979 22.53 16.558s10.91 11.977 16.544 22.194c5.63 9.865 8.446 21.137 8.446 33.821 0 20.081-8.096 39.105-24.287 56.719h13.728l63.361 41.572h-141.505c-40.126 0-73.216-10.217-99.265-30.298-24.639-20.433-36.96-45.093-36.96-74.334 0-23.251 8.448-42.981 25.344-59.892 17.601-18.319 41.185-27.126 70.754-27.126h4.221c-0.702-2.114-1.055-4.934-1.055-9.161 0-7.399 2.816-15.149 8.448-23.603-38.017-2.818-67.936-11.274-89.76-25.364-29.567-18.321-44.354-42.277-44.354-71.518 0-22.546 10.562-42.275 31.681-59.185 21.121-16.91 51.393-25.367 90.819-25.367 45.758 0 81.662 10.57 107.71 31.707s39.072 45.799 39.072 74.686c0 11.979-2.816 23.253-8.096 34.175-5.28 10.568-10.559 18.67-15.839 23.603s-13.025 11.624-23.585 20.433l-19.007 15.149zM335.866 574.493c7.039 8.102 17.246 12.329 30.624 12.329 16.189 0 30.269-9.159 42.24-26.774 10.559-17.263 15.839-34.173 15.839-50.379 0-12.683-3.521-22.194-10.559-28.537-7.743-7.045-17.601-10.57-29.569-10.57-17.601 0-32.031 8.456-43.295 25.719-9.857 15.854-14.787 32.059-14.787 48.617 0 12.683 3.17 22.546 9.507 29.594v0 0zM435.481 277.858c-12.321-9.161-29.215-13.74-51.040-13.74-25.342 0-45.761 5.284-61.247 15.854-15.487 10.568-23.233 25.012-23.233 42.979 0 21.139 13.375 37.343 40.129 48.265 17.601 5.988 35.199 9.161 52.799 9.161h8.45c21.119-15.501 35.199-27.832 42.24-36.286 7.039-8.456 10.559-18.321 10.559-28.889 0-15.501-6.339-28.185-18.657-37.343v0 0zM627.321 628.394h-35.903v-71.164h-84.48v-41.572h84.48v-90.188h35.903v90.188h82.369v41.572h-82.369v71.164z" />
<glyph unicode="&#xe612;" glyph-name="heart_icon_1_1" horiz-adv-x="1144" d="M829.091 899.765v0c-40.357 0-79.939-9.021-116.539-26.148-37.673-18.374-69.842-42.414-95.923-71.49l-44.835-49.982-44.84 49.978c-26.093 29.083-58.259 53.122-94.647 70.888-38.924 17.864-77.746 26.754-117.825 26.754-34.782 0-68.182-6.729-99.448-19.482-31.663-13.647-58.853-31.448-81.842-53.162-23.182-22.615-40.89-48.352-53.716-78.252-12.822-29.875-19.242-61.875-19.242-96.503 0-43.513 9.695-86.074 28.99-126.622 21.284-44.703 51.749-90.884 91.051-137.21 42.438-50.885 91.751-101.915 149.364-153.991 51.937-48.399 107.729-98.816 198.88-180.143l83.089-73.204-79.641-0.001 82.804 72.957c66.611 59.426 130.735 117.567 199.844 181.014 56.912 51.433 106.223 102.461 148.614 153.275 38.365 46.193 69.102 92.788 91.115 137.298 19.808 41.615 29.89 84.234 29.89 126.627 0 33.355-6.785 65.403-19.65 95.409-13.874 30.634-32.007 56.99-53.508 78.683-23.681 22.378-50.87 40.178-81.468 53.376-32.329 13.201-65.735 19.931-100.518 19.931v0zM527.883 883.606c-0.311-0.345-0.622-0.69-0.933-1.036l44.839-40.221 44.835 40.225c-0.309 0.345-0.619 0.689-0.93 1.033 21.319 16.896 44.859 31.667 70.451 44.149 44.67 20.914 92.919 32.244 142.944 32.244 43.779 0 84.878-8.716 123.29-24.401 38.424-16.559 71.481-38.346 100.069-65.361 27.696-27.889 50.031-60.133 67.006-97.611 16.083-37.472 25.016-77.559 25.016-120.26 0-52.29-12.505-103.707-35.738-152.516-24.124-48.797-57.181-99.346-99.165-149.896-42.894-51.417-93.81-104.574-154.564-159.479-60.753-55.778-126.868-115.911-200.132-181.272l-83.083-73.204-83.089 73.204c-73.258 65.361-140.27 125.494-200.126 181.272-60.753 54.904-111.676 108.062-154.558 159.479-42.888 50.549-75.945 101.099-99.177 149.896-23.227 48.809-34.84 100.226-34.84 152.516 0 42.701 8.041 82.787 24.124 120.26 16.077 37.478 38.418 69.722 67.006 97.611 28.588 27.016 61.645 48.803 100.063 65.361 38.418 15.685 79.511 24.401 123.29 24.401 50.031 0 97.382-11.33 142.95-32.244 25.593-12.482 49.131-27.254 70.45-44.15v0z" />
<glyph unicode="&#xe613;" glyph-name="heart_icon_1_2" horiz-adv-x="1144" d="M527.883 883.606c-0.311-0.345-0.622-0.69-0.933-1.036l44.839-40.221 44.835 40.225c-0.309 0.345-0.619 0.689-0.93 1.033 21.319 16.896 44.859 31.667 70.451 44.149 44.67 20.914 92.919 32.244 142.944 32.244 43.779 0 84.878-8.716 123.29-24.401 38.424-16.559 71.481-38.346 100.069-65.361 27.696-27.889 50.031-60.133 67.006-97.611 16.083-37.472 25.016-77.559 25.016-120.26 0-52.29-12.505-103.707-35.738-152.516-24.124-48.797-57.181-99.346-99.165-149.896-42.894-51.417-93.81-104.574-154.564-159.479-60.753-55.778-126.868-115.911-200.132-181.272l-83.083-73.204-83.089 73.204c-73.258 65.361-140.27 125.494-200.126 181.272-60.753 54.904-111.676 108.062-154.558 159.479-42.888 50.549-75.945 101.099-99.177 149.896-23.227 48.809-34.84 100.226-34.84 152.516 0 42.701 8.041 82.787 24.124 120.26 16.077 37.478 38.418 69.722 67.006 97.611 28.588 27.016 61.645 48.803 100.063 65.361 38.418 15.685 79.511 24.401 123.29 24.401 50.031 0 97.382-11.33 142.95-32.244 25.593-12.482 49.131-27.254 70.45-44.15v0z" />
<glyph unicode="&#xe614;" glyph-name="help_icon" d="M0 448v0 0c0 141.722 49.146 261.722 149.715 362.278 99.43 99.443 220.57 149.722 362.285 149.722s261.715-50.278 362.285-149.722c99.43-100.557 149.715-220.557 149.715-362.278s-50.285-262.861-149.715-362.278c-100.57-99.443-220.57-149.722-362.285-149.722s-262.854 50.278-362.285 149.722c-100.57 99.418-149.715 220.557-149.715 362.278zM64 448c0-124 43.002-230.003 131.002-316.998 87.002-87.002 192.998-131.002 316.998-131.002s228.998 44 316.998 131.002c87.002 86.995 131.002 192.998 131.002 316.998s-44 228.998-131.002 316.998c-88 87.002-192.998 131.002-316.998 131.002s-229.997-44-316.998-131.002c-88-88-131.002-192.998-131.002-316.998v0 0zM534.003 204c-12-12-27.002-18.003-44-18.003-16 0-30.003 6.003-40 20-11.002 14.003-16 31.002-16 52 0 20 5.997 37.005 17.997 50.003 12 12 26.003 19.002 42.003 19.002 16.998 0 30.995-8 42.995-22.003 11.002-13.997 16-32 15.002-52 0-20.998-5.997-36.998-17.997-48.998v0 0zM600 468.998l-28-16.998c-12-10.003-20-20.998-24-32-3.002-10.003-4-22.003-4-36 0-4.998-4-7.002-9.997-7.002h-78.003c-5.997 0-8 2.003-8 8 2.003 34.003 8.998 60 20 76.998 12 18.003 35.002 37.005 70.003 56 9.997 7.002 16.998 13.005 20 19.002 9.997 14.003 16 27.002 16 36.998 0 15.002-6.003 29.005-16 43.002-11.002 14.003-28 20.998-50.003 20.998-23.002 0-40-9.997-52-28-5.997-8-8-24.998-8-50.995h-97.997c0 60 17.997 102.995 56 126.995 24.998 16 56 24 93.997 24 50.003 0 92-12 124-33.997 32.998-24 50.003-56 50.003-96.998 0-24-8-46.003-24-67.002-8-12-25.005-26.003-50.003-43.002v0 0z" />
<glyph unicode="&#xe615;" glyph-name="icon_1_2" horiz-adv-x="1164" d="M43.212 354.909v0c1.273 0 3.685 2.568 3.308 5.705 15.675-130.601 80.852-249.46 181.442-334.798 27.431-23.272 92.824-43.271 138.476-43.271h424.104c45.652 0 111.045 19.999 138.476 43.271 100.589 85.337 165.766 204.197 181.441 334.799-0.377-3.139 2.035-5.706 3.308-5.706h-1070.555zM555.217 494.545h-93.091v-46.545h232.727v46.545h-93.091v325.818c0 51.414 41.677 93.091 93.091 93.091s93.091-41.677 93.091-93.091v-93.091h46.545v93.091c0 77.121-62.515 139.636-139.636 139.636s-139.636-62.515-139.636-139.636v-325.818zM43.212 401.455h1070.555c25.702 0 45.968-20.876 42.906-46.387-17.436-145.273-90.41-273.855-197.544-364.744-39.173-33.233-117.174-54.323-168.588-54.323h-424.104c-51.414 0-129.415 21.090-168.588 54.323-107.134 90.889-180.108 219.471-197.544 364.744-3.063 25.512 17.203 46.387 42.906 46.387v0zM369.035 541.091h-162.909c-12.856 0-23.273 10.422-23.273 23.273s10.417 23.273 23.273 23.273h162.909c25.707 0 46.545-20.838 46.545-46.545v-93.091h-46.545v93.091zM787.944 587.636h162.909c12.856 0 23.273-10.422 23.273-23.273s-10.417-23.273-23.273-23.273h-162.909v-93.091h-46.545v93.091c0 25.707 20.838 46.545 46.545 46.545zM977.696 292.404v0c3.728 12.301 16.722 19.25 29.022 15.522s19.25-16.722 15.522-29.022c-2.541-8.384-7.634-22.433-15.524-40.292-13.083-29.614-29.451-59.226-49.416-86.986-6.37-8.856-13.026-17.399-19.977-25.592-13.2-15.558-28.089-29.235-44.342-41.153-39.423-28.907-78.726-43.234-106.004-48.149-12.649-2.279-24.752 6.127-27.031 18.777s6.127 24.752 18.777 27.031c4.783 0.862 14.052 3.264 26.272 7.719 20.633 7.521 41.282 18.094 60.463 32.159 13.397 9.824 25.604 21.036 36.373 33.729 6.13 7.225 12.024 14.79 17.682 22.657 17.932 24.933 32.769 51.776 44.628 78.618 7.075 16.015 11.533 28.312 13.555 34.983z" />
<glyph unicode="&#xe616;" glyph-name="icon_3_2" d="M518.089 550.221c20.247 97.638 54.303 227.646 98.708 272.051 74.412 74.412 195.056 74.412 269.476 0 74.412-74.416 74.412-195.064 0-269.476-44.405-44.405-174.413-78.461-272.051-98.708-0.807 13.635-4.328 27.139-10.563 39.634 29.288 6.037 58.083 12.626 85.546 19.733 84.903 21.97 146.4 46.599 168.105 68.304 58.416 58.416 58.416 153.13 0.002 211.548-58.424 58.418-153.135 58.418-211.551 0.002-21.705-21.705-46.333-83.202-68.304-168.105-7.107-27.463-13.696-56.258-19.733-85.546-12.495 6.235-26 9.756-39.634 10.564v0 0zM614.221 441.911c97.638-20.247 227.646-54.303 272.051-98.708 74.412-74.412 74.412-195.060 0-269.476-74.42-74.412-195.064-74.412-269.476 0-44.405 44.405-78.461 174.413-98.708 272.051 13.635 0.807 27.139 4.328 39.634 10.564 6.037-29.288 12.626-58.083 19.733-85.546 21.97-84.903 46.599-146.4 68.304-168.105 58.416-58.416 153.127-58.416 211.549-0.001 58.417 58.42 58.417 153.134 0.001 211.55-21.705 21.705-83.202 46.333-168.105 68.304-27.463 7.107-56.258 13.696-85.546 19.733 6.235 12.495 9.756 25.999 10.563 39.634v0 0zM505.911 345.779c-20.247-97.638-54.303-227.646-98.708-272.051-74.412-74.412-195.056-74.412-269.476 0-74.412 74.416-74.412 195.064 0 269.476 44.405 44.405 174.413 78.461 272.051 98.708 0.807-13.635 4.328-27.139 10.563-39.634-29.288-6.037-58.083-12.626-85.546-19.733-84.903-21.97-146.4-46.599-168.105-68.304-58.416-58.416-58.416-153.13-0.002-211.548 58.424-58.418 153.135-58.418 211.551-0.002 21.705 21.705 46.333 83.202 68.304 168.105 7.107 27.463 13.696 56.258 19.733 85.546 12.495-6.235 26-9.756 39.634-10.564v0 0zM409.779 454.089c-97.638 20.247-227.646 54.303-272.051 98.708-74.412 74.412-74.412 195.060 0 269.476 74.42 74.412 195.064 74.412 269.476 0 44.405-44.405 78.461-174.413 98.708-272.051-13.635-0.807-27.139-4.328-39.634-10.564v0c-6.037 29.288-12.626 58.083-19.733 85.546-21.97 84.903-46.599 146.4-68.304 168.105-58.416 58.416-153.127 58.416-211.549 0.001-58.417-58.42-58.417-153.134-0.001-211.55 21.705-21.705 83.202-46.333 168.105-68.304 27.463-7.107 56.258-13.696 85.546-19.733-6.235-12.495-9.756-25.999-10.563-39.634v0 0zM512 386.56c33.932 0 61.44 27.508 61.44 61.44s-27.508 61.44-61.44 61.44c-33.932 0-61.44-27.508-61.44-61.44s27.508-61.44 61.44-61.44v0zM54.565 560.852c-10.949 18.804-19.26 38.722-24.933 59.218v0c-19.185-53.777-29.632-111.703-29.632-172.070s10.447-118.293 29.632-172.070v0c5.673 20.495 13.984 40.413 24.933 59.217-8.89 36.156-13.605 73.953-13.605 112.852s4.715 76.696 13.605 112.852v0 0zM624.852-9.435c18.804-10.949 38.722-19.26 59.217-24.933-53.777-19.185-111.703-29.631-172.069-29.631s-118.293 10.447-172.070 29.632v0c20.495 5.673 40.413 13.984 59.217 24.933 36.156-8.89 73.953-13.605 112.852-13.605s76.696 4.715 112.852 13.605v0 0zM399.148 905.435c-18.804 10.949-38.722 19.26-59.217 24.933v0c53.777 19.185 111.703 29.631 172.069 29.631s118.293-10.447 172.070-29.632v0c-20.495-5.673-40.413-13.984-59.217-24.933-36.156 8.89-73.953 13.605-112.852 13.605s-76.696-4.715-112.852-13.605v0 0zM969.435 335.148c10.949-18.804 19.26-38.722 24.933-59.218 19.185 53.777 29.632 111.703 29.632 172.070s-10.447 118.293-29.632 172.070v0c-5.673-20.495-13.984-40.413-24.933-59.217 8.89-36.156 13.605-73.953 13.605-112.852s-4.715-76.696-13.605-112.852v0 0z" />
<glyph unicode="&#xe617;" glyph-name="icon_4_2" horiz-adv-x="1158" d="M194.408 279.752l-177.331-72.245c-22.768-9.278-22.768-24.318 0-33.596l518.585-211.273c22.773-9.278 59.69-9.278 82.463 0l518.585 211.273c22.768 9.278 22.768 24.318 0 33.596l-177.331 72.245-59.001-24.037 161.676-65.868-460.726-185.979c-12.004-4.891-36.863-4.891-48.867 0l-457.407 187.332 158.356 64.515-59.001 24.037zM194.408 546.883l-177.331-72.245c-22.768-9.278-22.768-24.318 0-33.596l518.585-211.273c22.773-9.278 59.69-9.278 82.463 0l518.585 211.273c22.768 9.278 22.768 24.318 0 33.596l-177.331 72.245-59.001-24.037 161.676-65.868-460.726-185.979c-12.004-4.891-36.863-4.891-48.867 0l-457.407 187.332 158.356 64.515-59.001 24.037zM17.076 708.172c-22.768 9.278-22.768 24.318 0 33.596l518.585 211.273c22.773 9.278 59.69 9.278 82.463 0l518.585-211.273c22.768-9.278 22.768-24.318 0-33.596l-518.585-211.273c-22.773-9.278-59.69-9.278-82.463 0l-518.585 211.273zM552.46 538.129c12.004-4.891 36.862-4.891 48.867 0l460.726 185.979-460.727 187.702c-12.004 4.891-36.862 4.891-48.867 0l-457.406-186.349 457.407-187.332z" />
<glyph unicode="&#xe618;" glyph-name="icon_5_2" horiz-adv-x="948" d="M758.519-64v986.074h-568.889v-986.074h-170.667c-10.475 0-18.963 8.492-18.963 18.963s8.488 18.963 18.963 18.963h132.741v948.148c0 20.943 16.979 37.926 37.926 37.926h568.889c20.946 0 37.926-16.983 37.926-37.926v-948.148h132.741c10.475 0 18.963-8.492 18.963-18.963s-8.488-18.963-18.963-18.963h-170.667zM227.556 884.148v-948.148h493.037v948.148h-493.037zM303.407 410.074c0 10.473 8.183 18.963 18.788 18.963h76.202c10.376 0 18.788-8.796 18.788-18.963 0-10.473-8.183-18.963-18.788-18.963h-76.202c-10.376 0-18.788 8.796-18.788 18.963v0zM379.259 770.37h37.926v-265.481h-37.926v265.481zM530.963 770.37h37.926v-265.481h-37.926v265.481zM379.259 315.259h37.926v-265.481h-37.926v265.481zM530.963 315.259h37.926v-265.481h-37.926v265.481zM265.481 846.222h417.185v-872.296h-417.185v872.296z" />
<glyph unicode="&#xe619;" glyph-name="icon_6_2" horiz-adv-x="670" d="M624.251 566.154h-578.964c6.696-33.008 18.991-64.462 36.388-93.268 71.555-118.478 106.682-190.132 113.85-261.194h278.486c7.169 71.062 42.296 142.716 113.851 261.194 17.397 28.805 29.692 60.26 36.388 93.267zM629.509 605.538c0.429 6.525 0.645 13.092 0.645 19.692 0 163.14-132.245 295.385-295.385 295.385s-295.385-132.245-295.385-295.385c0-6.6 0.216-13.167 0.645-19.692h589.479zM334.769 960c184.891 0 334.769-149.878 334.769-334.769 0-63.212-17.518-122.297-47.963-172.705-44.587-73.826-109.576-181.784-109.576-268.788v-11.429h-354.462v11.429c0 87.005-64.989 194.962-109.576 268.788-30.444 50.408-47.963 109.493-47.963 172.705 0 184.891 149.878 334.769 334.769 334.769v0zM157.538 34.462c0 10.876 8.762 19.692 20.073 19.692h314.316c11.086 0 20.073-9.135 20.073-19.692 0-10.876-8.762-19.692-20.073-19.692h-314.316c-11.086 0-20.073 9.135-20.073 19.692v0zM275.692-44.308c0 10.876 8.497 19.692 19.511 19.692h79.132c10.775 0 19.511-9.135 19.511-19.692 0-10.876-8.497-19.692-19.511-19.692h-79.132c-10.775 0-19.511 9.135-19.511 19.692v0zM157.538 113.231c0 10.876 8.762 19.692 20.073 19.692h314.316c11.086 0 20.073-9.135 20.073-19.692 0-10.876-8.762-19.692-20.073-19.692h-314.316c-11.086 0-20.073 9.135-20.073 19.692v0zM334.769 448c-32.626 0-59.077-26.451-59.077-59.077v-137.846h39.385v137.846c0 10.874 8.814 19.692 19.692 19.692s19.692-8.818 19.692-19.692v-137.846h39.385v137.846c0 32.626-26.451 59.077-59.077 59.077v0z" />
<glyph unicode="&#xe61a;" glyph-name="icon_7_2" d="M81.92 919.040v0-204.8c0 0.001 0.001 0 0 0h819.2c-0.001 0 0 0.001 0 0v204.8c0-0.001-0.001 0 0 0h-819.2c0.001 0 0-0.001 0 0v0 0zM40.96 919.040c0 22.618 18.338 40.96 40.96 40.96h819.2c22.622 0 40.96-18.342 40.96-40.96v-204.8c0-22.618-18.338-40.96-40.96-40.96h-819.2c-22.622 0-40.96 18.342-40.96 40.96v204.8zM409.6 386.56v-409.6c0 0.001 0.001 0 0 0h122.88c-0.001 0 0 0.001 0 0v409.6c0-0.001-0.001 0 0 0h-122.88c0.001 0 0-0.001 0 0v0zM368.64 386.56c0 22.618 18.338 40.96 40.96 40.96h122.88c22.622 0 40.96-18.342 40.96-40.96v-409.6c0-22.618-18.338-40.96-40.96-40.96h-122.88c-22.622 0-40.96 18.342-40.96 40.96v409.6zM491.52 632.32c-22.622 0-40.96-18.342-40.96-40.96v-163.84h40.96v163.84h491.52c22.622 0 40.96 18.342 40.96 40.96v163.84c0 22.618-18.338 40.96-40.96 40.96h-40.96v-40.96h40.96v-163.84h-491.52zM0 837.12h40.96v-40.96h-40.96v40.96zM122.88 775.68c0 11.309 9.167 20.48 20.48 20.48h696.32c11.313 0 20.48-9.171 20.48-20.48s-9.167-20.48-20.48-20.48h-696.32c-11.313 0-20.48 9.171-20.48 20.48v0z" />
<glyph unicode="&#xe61b;" glyph-name="icon_8_2" d="M901.12 673.28v245.76c0 22.618-18.338 40.96-40.96 40.96h-122.88c-22.622 0-40.96-18.342-40.96-40.96v-40.96l40.96-40.96v81.92h122.88v-204.8l40.96-40.96zM29.307 427.52l482.693 474.911 482.693-474.911 29.307 28.832-512 503.648-512-503.648 29.307-28.832zM942.080 17.92v368.64l-40.96 40.96v-409.6h40.96zM81.92 386.56v-368.64h40.96v409.6l-40.96-40.96zM409.6-64h-389.145c-11.602 0-20.455 9.169-20.455 20.48 0 10.98 9.346 20.48 20.876 20.48h347.764v327.781c0 22.579 18.392 40.859 41.080 40.859h204.56c23.144 0 41.080-18.293 41.080-40.859v-327.781h347.764c11.763 0 20.876-9.169 20.876-20.48 0-10.98-9.158-20.48-20.455-20.48h-389.145v368.64h-204.8v-368.64z" />
<glyph unicode="&#xe61c;" glyph-name="icon_9_2" horiz-adv-x="878" d="M17.504 285.646c-21.427-21.416-21.427-56.163 0-77.579l240.849-240.856c21.422-21.422 56.157-21.422 77.579 0l496.852 496.86c17.708 17.699 31.215 50.31 31.215 75.357 0 10.099-8.187 18.286-18.286 18.286s-18.286-8.187-18.286-18.286c0-15.347-9.653-38.652-20.501-49.494l-496.856-496.863c-7.14-7.14-18.719-7.14-25.859 0l-240.852 240.859c-7.139 7.136-7.139 18.717-0.004 25.849 7.143 7.139 7.146 18.717 0.007 25.86s-18.717 7.146-25.86 0.007zM592.363 778.43c-1.726-6.23-2.648-12.794-2.648-19.573 0-40.393 32.746-73.143 73.143-73.143s73.143 32.75 73.143 73.143c0 40.393-32.746 73.143-73.143 73.143-20.437 0-38.916-8.382-52.187-21.895-28.121 15.249-58.14 30.341-89.434 44.612-66.458 30.307-131.599 53.69-193.004 67.427-30.234 6.763-59.15 11.074-86.58 12.706-142.058 8.454-241.653-80.666-241.653-194.279 0-44.87 19.672-87.962 52.061-128.061 11.103-13.747 22.965-26.173 34.84-37.106 7.191-6.62 12.873-11.336 16.303-13.949 8.033-6.12 19.507-4.57 25.627 3.463s4.57 19.507-3.463 25.627c-2.57 1.958-7.388 5.957-13.697 11.765-10.624 9.781-21.263 20.926-31.16 33.18-27.612 34.186-43.939 69.951-43.939 105.082 0 92.119 81.448 165 202.909 157.772 25.364-1.51 52.36-5.534 80.768-11.889 58.642-13.119 121.488-35.677 185.813-65.012 30.162-13.755 59.138-28.308 86.301-43.013v0zM645.088 790.829c5.261 2.93 11.32 4.6 17.769 4.6 20.197 0 36.571-16.375 36.571-36.571s-16.374-36.571-36.571-36.571c-20.197 0-36.571 16.375-36.571 36.571 0 0.199 0.002 0.398 0.005 0.596 5.751-3.327 11.107-6.488 16.042-9.457 5.271-3.171 8.893-5.413 10.719-6.573 8.524-5.416 19.824-2.896 25.24 5.628s2.896 19.824-5.628 25.24c-2.071 1.316-5.947 3.715-11.479 7.043-4.971 2.991-10.345 6.164-16.096 9.494zM410.057 824.49c-72.696-72.697-72.696-72.697-159.93-159.933s-87.235-87.236-159.93-159.932c-58.156-58.157-58.156-58.157-72.696-72.697-21.423-21.412-21.423-56.16 0.003-77.575l240.849-240.856c21.422-21.422 56.157-21.422 77.579 0l496.852 496.86c17.71 17.71 31.215 50.313 31.215 75.357v219.429c0 30.295-24.561 54.857-54.857 54.857h-219.429c-25.042 0-57.645-13.505-75.358-31.208-7.143-7.139-7.146-18.717-0.007-25.86s18.717-7.146 25.86-0.007c10.856 10.851 34.16 20.504 49.504 20.504h219.429c10.098 0 18.286-8.188 18.286-18.286v-219.429c0-15.345-9.652-38.646-20.504-49.497l-496.852-496.86c-7.14-7.14-18.719-7.14-25.859 0l-240.852 240.859c-7.139 7.136-7.139 18.717-0.004 25.849 14.543 14.543 14.543 14.543 72.699 72.7 72.696 72.697 72.696 72.697 159.93 159.932s87.235 87.236 159.93 159.932c7.141 7.141 7.141 18.719 0 25.86s-18.719 7.141-25.86 0z" />
<glyph unicode="&#xe61d;" glyph-name="icon2_2" horiz-adv-x="979" d="M178.087 915.478v0c-24.59 0-44.522-19.932-44.522-44.522v-845.913c0-24.59 19.932-44.522 44.522-44.522s44.522 19.932 44.522 44.522v845.913c0 24.59-19.932 44.522-44.522 44.522v0 0zM178.087 960c49.179 0 89.043-39.865 89.043-89.043v-845.913c0-49.179-39.865-89.043-89.043-89.043s-89.043 39.865-89.043 89.043v845.913c0 49.179 39.865 89.043 89.043 89.043v0zM489.739 915.478c-24.59 0-44.522-19.932-44.522-44.522v-845.913c0-24.59 19.932-44.522 44.522-44.522s44.522 19.932 44.522 44.522v845.913c0 24.59-19.932 44.522-44.522 44.522v0zM489.739 960c49.179 0 89.043-39.865 89.043-89.043v-845.913c0-49.179-39.865-89.043-89.043-89.043s-89.043 39.865-89.043 89.043v845.913c0 49.179 39.865 89.043 89.043 89.043v0zM801.391 915.478c-24.59 0-44.522-19.932-44.522-44.522v-845.913c0-24.59 19.932-44.522 44.522-44.522s44.522 19.932 44.522 44.522v845.913c0 24.59-19.932 44.522-44.522 44.522v0zM801.391 960c49.179 0 89.043-39.865 89.043-89.043v-845.913c0-49.179-39.865-89.043-89.043-89.043s-89.043 39.865-89.043 89.043v845.913c0 49.179 39.865 89.043 89.043 89.043v0zM311.652 893.641c0 12.060 10.326 21.837 22.261 21.837 12.294 0 22.261-9.575 22.261-21.837v-134.413c0-12.060-10.326-21.837-22.261-21.837-12.294 0-22.261 9.575-22.261 21.837v134.413zM623.304 893.641c0 12.060 10.326 21.837 22.261 21.837 12.294 0 22.261-9.575 22.261-21.837v-134.413c0-12.060-10.326-21.837-22.261-21.837-12.294 0-22.261 9.575-22.261 21.837v134.413zM934.957 893.641c0 12.060 10.326 21.837 22.261 21.837 12.294 0 22.261-9.575 22.261-21.837v-134.413c0-12.060-10.326-21.837-22.261-21.837-12.294 0-22.261 9.575-22.261 21.837v134.413zM311.652 181.293c0 12.060 10.326 21.837 22.261 21.837 12.294 0 22.261-9.575 22.261-21.837v-134.413c0-12.060-10.326-21.837-22.261-21.837-12.294 0-22.261 9.575-22.261 21.837v134.413zM623.304 181.293c0 12.060 10.326 21.837 22.261 21.837 12.294 0 22.261-9.575 22.261-21.837v-134.413c0-12.060-10.326-21.837-22.261-21.837-12.294 0-22.261 9.575-22.261 21.837v134.413zM934.957 181.293c0 12.060 10.326 21.837 22.261 21.837 12.294 0 22.261-9.575 22.261-21.837v-134.413c0-12.060-10.326-21.837-22.261-21.837-12.294 0-22.261 9.575-22.261 21.837v134.413zM0 893.641c0 12.060 10.326 21.837 22.261 21.837 12.294 0 22.261-9.575 22.261-21.837v-134.413c0-12.060-10.326-21.837-22.261-21.837-12.294 0-22.261 9.575-22.261 21.837v134.413zM0 181.293c0 12.060 10.326 21.837 22.261 21.837 12.294 0 22.261-9.575 22.261-21.837v-134.413c0-12.060-10.326-21.837-22.261-21.837-12.294 0-22.261 9.575-22.261 21.837v134.413z" />
<glyph unicode="&#xe61e;" glyph-name="info_icon_1_2" horiz-adv-x="862" d="M0 906.105v-916.211c0-29.766 24.134-53.895 53.895-53.895h754.526c29.761 0 53.895 24.129 53.895 53.895v592.842l-377.263 377.263h-431.158c-29.761 0-53.895-24.129-53.895-53.895zM538.947 636.632l0.206 193.049 192.842-192.842c0 0-193.049-0.205-193.049-0.206zM784.727 582.737l23.694-23.579c0 0-0.002-569.263 0-569.263 0 0-754.526 0.002-754.526 0 0 0 0.002 916.211 0 916.211h405.891l25.266-25.144v-244.33c0-29.766 24.134-53.895 53.895-53.895h245.78zM215.579 690.526v-53.895c0 0.002 0.002 0 0 0h53.895c-0.002 0 0 0.002 0 0v53.895c0-0.002-0.002 0 0 0h-53.895c0.002 0 0-0.002 0 0v0zM161.684 690.526c0 29.766 24.134 53.895 53.895 53.895h53.895c29.761 0 53.895-24.129 53.895-53.895v-53.895c0-29.766-24.134-53.895-53.895-53.895h-53.895c-29.761 0-53.895 24.129-53.895 53.895v53.895zM215.579 474.947v-53.895c0 0.002 0.002 0 0 0h53.895c-0.002 0 0 0.002 0 0v53.895c0-0.002-0.002 0 0 0h-53.895c0.002 0 0-0.002 0 0v0zM161.684 474.947c0 29.766 24.134 53.895 53.895 53.895h53.895c29.761 0 53.895-24.129 53.895-53.895v-53.895c0-29.766-24.134-53.895-53.895-53.895h-53.895c-29.761 0-53.895 24.129-53.895 53.895v53.895zM215.579 259.368v-53.895c0 0.002 0.002 0 0 0h53.895c-0.002 0 0 0.002 0 0v53.895c0-0.002-0.002 0 0 0h-53.895c0.002 0 0-0.002 0 0v0zM161.684 259.368c0 29.766 24.134 53.895 53.895 53.895h53.895c29.761 0 53.895-24.129 53.895-53.895v-53.895c0-29.766-24.134-53.895-53.895-53.895h-53.895c-29.761 0-53.895 24.129-53.895 53.895v53.895zM404.211 421.053h269.474v53.895h-269.474v-53.895zM404.211 205.474h269.474v53.895h-269.474v-53.895z" />
<glyph unicode="&#xe61f;" glyph-name="login_icon_1_1" d="M219.429 868.602c-86.859-61.549-148.111-139.887-184.683-236.878h77.713c21.030 47.558 50.287 90.461 88.684 129.627 85.027 85.799 188.346 129.633 310.857 129.633 121.599 0 224.917-43.834 310.857-129.633 85.027-85.799 128-190.251 128-313.354s-42.973-228.486-128-314.285c-85.94-85.799-189.259-128.696-310.857-128.696-122.511 0-225.83 42.897-310.857 130.564-38.397 38.235-67.654 81.132-88.684 129.627h-77.713c36.571-97.922 97.824-177.191 184.683-237.809 86.859-60.624 184.689-91.398 292.571-91.398 141.716 0 262.401 50.363 362.057 149.216 99.656 99.79 149.943 221.025 149.943 362.781s-50.287 262.066-149.943 361.85c-99.656 99.79-220.341 150.153-362.057 150.153-107.883 0-205.713-30.78-292.571-91.398v0 0zM450.741 237.232l207.544 210.765-207.544 209.84-50.281-54.094 118.854-121.235h-519.314v-69.016h519.314l-118.854-120.304 50.281-55.956z" />
<glyph unicode="&#xe620;" glyph-name="login_icon_1_2" d="M0 481.568c17.288 267.123 239.426 478.432 510.917 478.432 282.77 0 512-229.23 512-512s-229.23-512-512-512c-270.855 0-492.586 210.319-510.792 476.553h518.106l-118.854-120.304 50.281-55.956 207.544 210.765-207.544 209.84-50.281-54.094 118.854-121.235h-518.231z" />
<glyph unicode="&#xe621;" glyph-name="map_icon_1_2" horiz-adv-x="717" d="M325.106-24.196c2.528 2.967 5.686 6.704 9.424 11.172 11.962 14.299 25.322 30.686 39.726 48.882 41.185 52.025 82.374 107.97 120.736 165.542 43.853 65.814 81.117 129.499 109.694 189.2 39.717 82.976 60.914 154.836 60.914 211 0 169.664-137.535 307.2-307.2 307.2s-307.2-137.536-307.2-307.2c0-56.164 21.196-128.024 60.914-211 28.577-59.701 65.841-123.387 109.694-189.2 38.362-57.572 79.551-113.517 120.736-165.542 14.404-18.196 27.764-34.583 39.726-48.882 3.738-4.468 6.896-8.206 9.424-11.172-1.723-2.114-3.391-4.153-5-6.114h-56.588c-1.609 1.961-3.277 4-5 6.114v0zM0 601.6c0 197.939 160.456 358.4 358.4 358.4s358.4-160.461 358.4-358.4c0-255.442-358.4-665.6-358.4-665.6s-358.4 410.158-358.4 665.6zM256 601.6c0-56.556 45.844-102.4 102.4-102.4s102.4 45.844 102.4 102.4c0 56.556-45.844 102.4-102.4 102.4s-102.4-45.844-102.4-102.4zM204.8 601.6c0 84.833 68.767 153.6 153.6 153.6s153.6-68.767 153.6-153.6c0-84.833-68.767-153.6-153.6-153.6s-153.6 68.767-153.6 153.6v0z" />
<glyph unicode="&#xe622;" glyph-name="map_pin" horiz-adv-x="630" d="M0 660.307c0-34.462 7.524-71.999 23.829-112.616v-2.462c0-1.229 0.626-3.076 1.878-4.305l2.508-4.923 287.177-600.001 286.547 597.539 2.508 2.462 2.508 4.923v4.305l1.882 2.462c13.792 35.694 21.317 73.232 21.317 112.616 0 82.464-30.723 152.615-91.543 211.692-61.45 58.463-135.436 88.001-223.219 88.001s-162.399-29.538-223.845-88.001c-61.45-59.077-91.547-129.229-91.547-211.692v0 0zM569.588 554.913l-1.87-2.492v-2.492l-2.492-4.984-249.836-530.175-250.462 530.175-1.866 4.984v2.492l-2.492 2.492c-14.331 31.152-21.185 65.414-21.185 101.55 0 73.512 26.791 135.812 80.37 186.9 53.583 51.084 119.001 77.252 195.013 77.252 76.008 0 141.426-26.168 195.009-77.252 53.579-51.088 80.993-113.388 80.993-186.9 0-34.888-7.476-68.532-21.181-99.68v-1.87zM157.538 684.308c0-43.079 15.098-80.002 46.606-110.769 30.848-31.386 67.607-46.769 110.277-46.769 42.666 0 79.425 15.384 110.932 46.769 31.508 30.767 47.262 67.69 47.262 110.769 0 42.461-15.754 79.384-47.262 110.769-31.508 30.767-68.267 46.769-110.932 46.769-42.67 0-79.429-16.002-110.277-46.769-31.508-31.386-46.606-68.309-46.606-110.769v0 0zM196.923 684.308c0 33.229 11.379 61.538 34.138 84.307 22.763 22.154 50.877 33.847 84.35 33.847 33.469 0 60.919-11.693 83.678-33.847 22.763-22.768 34.142-51.078 34.142-84.307 0-33.847-11.379-62.153-34.142-84.307-22.758-22.772-50.208-33.847-83.678-33.847-33.474 0-61.588 11.075-84.35 33.847-22.758 22.154-34.138 50.46-34.138 84.307v0 0z" />
<glyph unicode="&#xe623;" horiz-adv-x="1609" d="M0 886.857c0 40.393 32.746 73.143 73.143 73.143h1462.857c40.397 0 73.143-32.75 73.143-73.143v-877.714c0-40.393-32.746-73.143-73.143-73.143h-1462.857c-40.397 0-73.143 32.75-73.143 73.143v877.714z" />
<glyph unicode="&#xe624;" horiz-adv-x="1609" d="M820.092 379.374l19.237 107.18h24.327l2.545-10.573c4.352 5.288 12.701 10.573 26.862 10.573l-7.27-28.314c-6.89 0-20.33 2.26-28.672-29.802l-8.711-49.064h-28.317zM1040.007 427.67l-2.176-11.688c-1.832-9.819-15.243-16.080-24.324-12.456-9.439 3.778-6.901 15.089 2.172 21.5 9.081 6.422 19.606 3.412 24.327 2.644zM1207.376 431.071v0 0c-5.091-13.195-11.619-21.884-22.155-21.884-9.794 0-18.509 11.714-14.515 27.18 6.107 23.643 26.141 33.196 34.849 21.116 3.141-4.348 4.721-16.6 1.821-26.412zM560.794 427.67l-2.183-11.688c-1.825-9.819-15.236-16.080-24.324-12.456-9.443 3.778-6.901 15.089 2.176 21.5 9.077 6.422 19.61 3.412 24.331 2.644zM759.376 447.305v0 0c3.266 13.579 11.249 19.624 22.506 19.624 11.253 0 14.53-9.062 12.709-19.624h-35.215zM996.436 484.659v0 0c18.52 3.778 28.325 3.405 37.032 3.778 47.557 0 42.843-35.482 39.943-50.194l-11.26-58.869h-26.5l-3.635 6.045c-5.087-3.785-9.081-5.661-23.596-6.418-14.523-0.768-33.035 10.555-29.769 32.837 7.984 45.279 58.814 36.966 66.074 37.723 3.269 16.223-7.618 14.724-17.426 15.108-9.797 0.358-28.317-2.651-35.218-3.401l4.356 23.391zM1217.536 475.231l7.621 41.501h29.773l-24.689-137.359h-30.49l-3.635 8.678c-5.808-4.14-15.247-8.294-24.686-8.678-20.334 0-38.985 29.857-29.769 62.636 13.791 49.072 38.126 46.054 53.731 46.054 13.433 0 16.691-8.689 22.144-12.833zM976.106 479.77c-7.259 4.517-12.343 5.274-21.775 5.274-9.439 0-30.501-9.384-34.498-35.847-4.718-31.32 15.978-46.793 45.023-36.626l8.349-26.401c-9.443-4.535-18.875-6.795-34.491-6.795-29.411 0-61.36 27.18-46.83 82.278 10.704 40.591 44.292 55.472 63.89 54.722 23.234-0.9 31.59-9.070 38.85-17.375l-18.52-19.229zM517.222 484.659v0 0c18.52 3.778 28.317 3.405 37.029 3.778 47.561 0 42.847-35.482 39.936-50.194l-11.257-58.869h-26.496l-3.632 6.045c-5.087-3.785-9.081-5.661-23.607-6.418-14.519-0.768-33.028 10.555-29.758 32.837 7.984 45.279 58.803 36.966 66.066 37.723 3.269 16.223-7.621 14.724-17.423 15.108-9.801 0.358-28.314-2.651-35.215-3.401l4.356 23.391zM486.001 379.374h-29.411l16.709 92.072-39.578-92.072h-26.869l-7.621 94.351-17.43-94.351h-28.31l24.32 130.564h45.381l5.442-79.232 34.498 79.232h46.464l-23.596-130.564zM669.707 462.402v0 0c-7.998 2.267-21.431 2.267-27.955 1.499-10.536-3.017-6.181-13.206-0.369-15.846 5.811-2.637 14.885-7.921 20.326-11.688 5.453-3.394 12.112-10.591 9.805-26.43-4.714-32.446-38.477-30.563-45.371-30.563-9.812 0-20.33 0-33.401 3.778l3.99 22.268c14.157-4.912 33.035-2.644 37.394-2.644 9.498 0 10.814 12.5 3.632 16.216-5.808 3.028-11.981 7.552-22.883 12.456-6.74 3.054-13.791 11.337-9.794 31.331 5.208 26.086 39.205 25.659 43.195 25.659 4.001 0 14.526 1.134 27.955-4.151l-6.524-21.884zM819.277 427.67h-61.722c-3.262-24.528 14.888-23.768 26.141-23.768 11.26 0 27.597 1.518 31.945 2.651l-4.348-22.268c-6.901-3.785-24.327-5.285-36.315-4.912-49.006 0-48.274 47.92-47.188 54.725 1.090 6.784 6.897 53.965 52.637 53.965 49.744 0 42.112-43.019 38.85-60.394zM696.561 515.233h28.321l-5.8-28.679h15.239l-5.080-23.402h-14.519l-7.991-43.769c-1.456-8.313-0.724-15.857 15.616-13.221l-1.821-21.877c-6.17-4.151-14.519-5.285-21.054-5.285-6.532 0-27.959 4.151-22.51 33.569l19.599 102.663zM1073.148 379.472l19.441 108.233h24.565l2.567-10.679c4.4 5.358 12.837 10.679 27.136 10.679l-7.698-28.189c-6.971 0-20.169 1.902-28.606-30.497l-8.799-49.547h-28.606zM1280 447.993c0 161.58-126.014 292.579-281.446 292.579-67.452 0-128.823-24.543-177.298-65.671 36.977-37.105 65.2-83.569 80.344-136.086h-23.384c-14.654 46.694-40.393 87.892-73.86 120.953-33.265-32.98-58.77-74.328-73.377-120.81h-23.398c15.086 52.231 42.829 98.739 79.517 135.739-48.355 40.708-109.436 65.876-176.508 65.876-155.432 0-281.446-130.999-281.446-292.579 0-161.565 126.014-292.564 281.446-292.564 67.072 0 128.154 25.168 176.508 65.876-36.688 36.999-64.432 83.533-79.517 135.757h23.398c14.607-46.501 40.112-87.848 73.377-120.821 33.467 33.053 59.205 74.258 73.86 120.945h23.384c-15.144-52.517-43.366-98.981-80.344-136.086 48.475-41.128 109.846-65.671 177.298-65.671 155.432 0 281.446 130.999 281.446 292.564v0 0z" />
<glyph unicode="&#xe625;" glyph-name="medium_arrow" d="M780 384l-360-360 92.998-90.003 513.005 513.005-513.005 512.998-89.997-90.003 356.998-360h-780v-125.997h780z" />
<glyph unicode="&#xe626;" glyph-name="menu_icon" horiz-adv-x="1182" d="M96.004 566.154c-27.081 0-50.467-11.684-68.923-35.051-18.464-23.376-27.081-51.937-27.081-83.099 0-32.467 8.617-59.731 27.081-83.099 18.456-23.376 41.842-35.059 68.923-35.059h990.767c25.844 0 48.002 11.684 66.458 35.059 18.464 23.367 28.31 50.632 28.31 83.099 0 31.162-9.846 59.723-28.31 83.099-18.456 23.367-40.613 35.051-66.458 35.051h-990.767zM96.004 960c-27.081 0-50.467-11.684-68.923-35.051-18.464-23.376-27.081-51.937-27.081-83.099 0-32.467 8.617-59.731 27.081-83.099 18.456-23.376 41.842-35.059 68.923-35.059h990.767c25.844 0 48.002 11.684 66.458 35.059 18.464 23.367 28.31 50.632 28.31 83.099 0 31.162-9.846 59.723-28.31 83.099-18.456 23.367-40.613 35.051-66.458 35.051h-990.767zM96.004 172.308c-27.081 0-50.467-11.684-68.923-35.051-18.464-23.376-27.081-51.937-27.081-83.099 0-32.467 8.617-59.731 27.081-83.099 18.456-23.376 41.842-35.059 68.923-35.059h990.767c25.844 0 48.002 11.684 66.458 35.059 18.464 23.367 28.31 50.632 28.31 83.099 0 31.162-9.846 59.723-28.31 83.099-18.456 23.367-40.613 35.051-66.458 35.051h-990.767z" />
<glyph unicode="&#xe627;" glyph-name="more_icon" d="M481.882 719.059h60.235v-240.941h240.941v-60.235h-240.941v-240.941h-60.235v240.941h-240.941v60.235h240.941v240.941zM60.235 448v0c0-249.501 202.258-451.765 451.765-451.765s451.765 202.264 451.765 451.765c0 249.501-202.258 451.765-451.765 451.765s-451.765-202.264-451.765-451.765zM0 448c0 282.763 229.225 512 512 512s512-229.237 512-512c0-282.763-229.225-512-512-512s-512 229.237-512 512v0z" />
<glyph unicode="&#xe628;" glyph-name="news_icon_big" horiz-adv-x="868" d="M469.467 655.478h19.051v-75.304h76.203v-19.478h-95.254v94.782zM317.060 694.261h196.462l89.301-90.435v-319.653h-57.153v-57.391h-285.763v410.086h57.153v57.392zM278.959 247.304h247.661v36.87h-209.559v332.174h-38.102v-369.044zM868.174 704l-435.448 256-432.726-256v-509.217l432.726-256 435.448 256v509.217zM336.111 304.696h247.661v291.13l-77.394 77.913h-170.267v-369.043zM851.845 692.87v-486.957l-419.118-244.87-416.397 244.87v486.957l416.397 244.87 419.118-244.87z" />
<glyph unicode="&#xe629;" glyph-name="phone" horiz-adv-x="975" d="M823.666 284.189c-47.494 27.429-88.309 41.906-120.961 41.906-19.292 0-34.874-4.574-47.494-12.19-44.525-24.381-71.981-36.571-80.886-36.571-5.937 0-17.069 6.856-33.393 21.333l-2.227 3.048c-17.069 13.712-43.784 38.858-80.886 75.43l-5.937 5.33c-1.487 1.526-3.709 3.813-5.196 6.095-2.227 2.287-4.45 3.813-5.937 3.813-3.709 3.808-27.456 32.758-71.981 86.855l-2.968 3.048c-24.488 28.955-36.361 47.241-36.361 53.336 0 13.712 11.128 36.571 33.393 68.569 29.683 44.193 30.424 96.763 2.968 158.476-17.069 33.524-46.753 80.764-89.050 140.951l-2.968 2.287c-28.202 35.811-59.367 54.096-94.246 54.096-26.715 0-56.399-12.19-89.050-35.050l-2.968-3.048c-40.816-27.429-66.785-59.426-77.918-95.998-22.265-70.095-5.937-159.237 50.462-267.43 62.335-116.57 135.803-220.189 219.658-310.857 64.563-70.095 136.544-135.617 216.689-195.048 100.183-77.712 186.265-116.57 258.987-116.57 25.974 0 46.012 0.761 60.108 2.287 13.36 1.521 31.17 9.143 52.689 22.855 20.778 12.951 43.043 32.763 65.304 58.665 55.658 66.287 55.658 127.239 0 183.623-25.974 25.902-62.335 52.57-109.829 80.759v0 0zM833.312-4.574c-18.551-7.617-44.525-10.664-77.918-10.664-57.88 0-135.803 36.571-233.758 110.475-83.855 61.713-154.354 123.431-211.493 185.905-81.627 86.86-152.127 187.431-211.493 301.714-50.462 94.476-66.044 171.427-47.494 229.332 8.905 27.429 28.943 50.288 58.626 70.095l5.937 3.048c27.456 16.764 48.975 25.907 63.817 25.907 22.265 0 42.298-12.19 60.853-35.811l2.968-3.048c89.050-114.283 117.247-193.521 86.082-237.714-31.17-44.188-46.012-77.712-44.525-102.093 1.482-18.286 18.551-45.714 50.462-83.812v-3.048c44.525-53.331 69.013-83.046 74.95-89.142 5.196-4.574 8.905-8.382 11.132-9.904l5.937-5.335c22.26-24.381 49.716-49.523 83.114-75.43h2.968c27.456-25.142 48.975-37.332 63.817-37.332s48.98 14.477 103.151 44.188c7.418 3.048 14.842 4.574 22.26 4.574 27.461 0 62.335-12.951 105.379-37.332 43.039-24.381 74.209-48.001 94.987-69.335 17.81-18.286 28.197-34.284 30.424-48.001 1.487-13.712-9.646-37.332-33.393-69.335-25.974-31.237-48.234-50.283-66.79-57.905v0 0z" />
<glyph unicode="&#xe62a;" glyph-name="phone_icon_1" horiz-adv-x="979" d="M42.906 870.957v0 0c-24.229 0-43.974-19.647-42.861-43.841 22.225-482.015 409.043-868.837 891.058-891.071 24.198-1.113 43.854 18.637 43.854 42.861v204.738c0 24.224-19.67 43.711-43.841 45.332-55.385 3.713-108.869 14.407-159.544 31.245-22.987 7.64-55.011 1.367-72.147-15.765-8.521-8.521-17.76-17.764-26.286-26.286-17.132-17.132-48.747-22.519-69.864-10.659-122.025 68.532-223.245 169.726-291.769 291.76-11.861 21.121-6.469 52.736 10.663 69.868 8.521 8.526 17.764 17.764 26.286 26.286 17.132 17.136 23.405 49.156 15.761 72.147-16.838 50.666-27.532 104.154-31.241 159.544-1.616 24.171-21.103 43.841-45.332 43.841h-204.738zM42.906 826.435h204.738c0.036 0 0.807-0.756 0.909-2.289 3.919-58.532 15.185-115.765 33.414-170.615 2.606-7.839-0.394-22.025-4.997-26.629-6.474-6.474-6.474-6.474-13.137-13.135-0.021-0.021-0.021-0.021-0.041-0.042-6.643-6.643-6.643-6.643-13.112-13.113-31.214-31.214-39.654-84.566-17.993-123.141 72.515-129.143 179.615-236.233 308.787-308.779 38.57-21.664 91.924-13.227 123.147 17.995 6.462 6.46 6.462 6.46 13.105 13.103 0.021 0.021 0.021 0.021 0.041 0.042 6.661 6.663 6.661 6.663 13.139 13.141 4.599 4.598 18.791 7.601 26.624 4.997 54.858-18.228 112.085-29.495 170.608-33.418 1.538-0.103 2.297-0.877 2.297-0.91v-204.738c0 0.666 1.040 1.691 2.714 1.614-459.033 21.174-827.464 389.61-848.629 848.647 0.078-1.685-0.954-2.732-1.613-2.732v0zM979.479 559.099c0-24.476-20.17-44.317-44.39-44.317h-311.784l-133.565-133.565v534.328c0 24.552 19.805 44.455 44.325 44.455h401.089c24.48 0 44.325-20.287 44.325-44.317v-356.584zM934.957 559.304v356.174h-400.696v-422.957l70.602 66.783h330.094zM781.864 731.051l-25.067-25.067v98.358c0 11.823-9.96 22.092-22.247 22.092-11.927 0-22.247-9.891-22.247-22.092v-98.358l-25.067 25.067c-8.525 8.525-22.654 8.567-31.341-0.121-8.434-8.434-8.753-22.709-0.145-31.317l63.214-63.214c8.798-8.798 22.564-8.608 31.172 0l63.214 63.214c8.798 8.798 8.543 22.629-0.145 31.317-8.434 8.434-22.72 8.742-31.341 0.121z" />
<glyph unicode="&#xe62b;" glyph-name="phone_icon_2" d="M39.473 796.16v0 0c-22.29 0-40.456-18.076-39.432-40.333 20.447-443.453 376.32-799.33 819.773-819.786 22.262-1.024 40.346 17.146 40.346 39.432v188.359c0 22.286-18.096 40.215-40.333 41.705-50.954 3.416-100.159 13.255-146.78 28.746-21.148 7.029-50.61 1.257-66.376-14.504-7.84-7.84-16.339-16.343-24.183-24.183-15.761-15.761-44.847-20.718-64.274-9.806-112.263 63.050-205.386 156.148-268.427 268.419-10.912 19.431-5.951 48.517 9.81 64.279 7.84 7.844 16.343 16.343 24.183 24.183 15.761 15.766 21.533 45.224 14.5 66.376-15.491 46.612-25.33 95.822-28.742 146.78-1.487 22.237-19.415 40.333-41.705 40.333h-188.359zM39.473 755.2h188.359c0.033 0 0.742-0.695 0.837-2.106 3.606-53.85 13.97-106.504 30.741-156.965 2.398-7.212-0.363-20.263-4.597-24.499-5.956-5.956-5.956-5.956-12.086-12.084-0.019-0.019-0.019-0.019-0.038-0.038-6.112-6.111-6.112-6.111-12.063-12.064-28.717-28.717-36.482-77.801-16.553-113.289 66.714-118.811 165.246-217.334 284.084-284.077 35.484-19.931 84.57-12.169 113.295 16.556 5.945 5.943 5.945 5.943 12.057 12.055 0.019 0.019 0.019 0.019 0.038 0.038 6.129 6.13 6.129 6.13 12.088 12.090 4.231 4.23 17.288 6.993 24.494 4.598 50.47-16.77 103.118-27.135 156.959-30.745 1.415-0.095 2.113-0.807 2.113-0.837v-188.359c0 0.612 0.956 1.555 2.497 1.485-422.31 19.48-761.267 358.441-780.739 780.756 0.071-1.551-0.878-2.513-1.484-2.513v0zM491.52 918.54c247.28 0 491.52-163.762 491.52-491.020h40.96c0 355.070-267.76 532.48-532.48 532.48v-41.46zM491.52 795.667c185.84 0 368.64-122.8 368.64-368.147h40.96c0 273.15-206.32 409.6-409.6 409.6v-41.453zM491.52 672.765c124.42 0 245.76-81.851 245.76-245.245h40.96c0 191.252-144.9 286.72-286.72 286.72v-41.475z" />
<glyph unicode="&#xe62c;" glyph-name="remove_icon" d="M614.861 449.141l410.28-410.288-102.853-102.853-410.288 410.288-409.139-410.288-102.861 102.853 409.147 410.288-409.147 407.998 102.861 102.861 409.139-407.998 410.288 407.998 102.853-102.861-410.28-407.998z" />
<glyph unicode="&#xe62d;" glyph-name="rss_icon" d="M0 858.071c0 56.294 45.988 101.929 101.929 101.929h820.143c56.294 0 101.929-45.988 101.929-101.929v-820.143c0-56.294-45.988-101.929-101.929-101.929h-820.143c-56.294 0-101.929 45.988-101.929 101.929v820.143zM153.6 185.175c0-26.885 9.708-49.285 30.612-67.948 20.905-18.668 45.548-27.628 73.917-27.628 28.375 0 53.018 8.96 73.923 27.628 20.163 18.662 30.618 41.062 30.618 67.948 0 26.138-10.455 48.538-30.618 67.2-20.905 18.662-45.548 28.375-73.923 28.375-28.37 0-53.012-9.713-73.917-28.375s-30.612-41.062-30.612-67.2zM153.6 424.11c99.308 0 179.2-30.623 238.93-91.095 59.74-61.23 89.6-141.865 89.6-243.415h149.34c0 130.662-47.043 242.662-141.123 336.748-94.080 94.080-206.080 141.117-336.748 141.117v-143.355zM153.6 663.040c159.043 0 293.443-56.003 403.2-166.502 109.015-110.51 164.27-246.4 164.27-406.938h149.33c0 197.862-70.185 366.612-209.812 506.988-140.375 139.628-309.12 209.812-506.988 209.812v-143.36z" />
<glyph unicode="&#xe62e;" horiz-adv-x="1609" d="M0 886.857c0 40.393 32.746 73.143 73.143 73.143h1462.857c40.397 0 73.143-32.75 73.143-73.143v-877.714c0-40.393-32.746-73.143-73.143-73.143h-1462.857c-40.397 0-73.143 32.75-73.143 73.143v877.714z" />
<glyph unicode="&#xe62f;" horiz-adv-x="1609" d="M1093.405 630.096l-288.827-166.963-286.775 167.011c5.72 10.258 11.546 20.356 18.304 29.908v0l268.471-156.259 267.18 155.509 21.647-29.206zM612.667 737.481c10.613 7.76 21.954 14.91 33.448 21.376v0l158.464-92.412 158.288 91.813c11.491-6.462 22.502-13.491 33.123-21.248v0l-191.411-111.214-192.015 110.731 0.102 0.955zM1107.152 598.572c17.083-39.965 26.562-83.858 26.562-129.803 0-181.895-148.593-331.626-329.136-331.626s-329.15 149.731-329.15 331.626c0 45.945 9.483 89.83 26.573 129.803 126.402-73.563 302.577-176.091 302.577-176.091s176.161 102.502 302.574 176.091v0 0 0 0zM558.296 687.813c7.976 9.088 16.483 17.938 25.392 26.116v0l220.891-128.805 221.279 128.867c8.901-8.188 17.492-17.115 25.49-26.222v0l-246.769-143.298-246.283 143.342z" />
<glyph unicode="&#xe630;" glyph-name="search_icon" d="M114.665 589.335c0 71.111 24.889 131.556 74.667 181.333s110.222 74.667 181.333 74.667c71.111 0 131.556-24.889 181.333-74.667s74.667-110.222 74.667-181.333c0-71.111-24.889-131.556-74.667-181.333s-110.222-74.667-181.333-74.667c-71.111 0-131.556 24.889-181.333 74.667s-74.667 110.222-74.667 181.333v0 0zM666.67 333.335l-16.003 15.997c58.67 67.556 88.001 147.558 88.001 240.003 0 103.111-35.556 190.219-106.667 262.218-71.111 72.004-158.225 108.447-261.336 108.447s-191.107-36.443-263.111-108.447c-71.999-71.999-107.554-159.107-107.554-262.218s35.556-190.225 107.554-261.336c72.004-71.111 160-106.667 263.111-106.667 92.444 0 172.447 29.332 240.003 88.001l15.997-16.003v-45.329l282.67-282.67 85.333 85.333-282.67 282.67h-45.329z" />
<glyph unicode="&#xe631;" glyph-name="small_arrow" horiz-adv-x="910" d="M693.339 392.886l-320-320 83.547-79.997 455.111 455.111-455.111 456.886-79.997-79.997 316.45-320h-693.339v-112.003h693.339z" />
<glyph unicode="&#xe632;" glyph-name="star_blue" d="M512 960l120.864-391.136h391.136l-316.432-241.727 120.864-391.136-316.432 241.743-316.432-241.743 120.864 391.136-316.432 241.727h391.136l120.864 391.136z" />
<glyph unicode="&#xe633;" glyph-name="star_gray" d="M512 960l120.864-391.136h391.136l-316.432-241.727 120.864-391.136-316.432 241.743-316.432-241.743 120.864 391.136-316.432 241.727h391.136l120.864 391.136z" />
<glyph unicode="&#xe634;" glyph-name="twitter" horiz-adv-x="901" d="M431.030 955.341c10.785 6.214 28.275 6.214 39.059 0l411.501-236.806c10.785-6.205 19.53-21.334 19.53-33.784v-473.502c0-12.45-8.745-27.578-19.53-33.784l-411.501-236.806c-10.785-6.214-28.275-6.214-39.059 0l-411.501 236.806c-10.785 6.205-19.53 21.334-19.53 33.784v473.502c0 12.45 8.745 27.578 19.53 33.784l411.501 236.806zM627.933 607.853c21.119 10.922 35.199 26.423 41.535 46.854-20.769-11.272-40.831-17.967-59.841-20.785-19.007 18.672-41.535 28.185-67.936 28.185-26.399 0-48.574-8.104-66.527-23.955-18.303-16.208-27.103-35.584-27.103-58.835 0-8.454 0.35-14.795 1.759-18.672-78.848 0-142.911 28.183-192.543 84.552-8.448-13.74-12.673-28.183-12.673-42.981 0-31.705 13.728-55.663 41.535-72.219-14.080 0-28.51 3.875-42.59 11.977v-1.057c0-22.899 7.039-42.981 21.821-60.244 14.434-17.615 32.385-28.535 53.858-33.116-10.559-2.816-19.010-3.875-25.344-3.875-3.873 0-9.505 0.352-17.248 1.761 5.632-19.024 16.544-34.877 32.735-46.854 16.191-12.331 34.144-18.321 54.209-18.321-34.144-32.41-72.864-48.617-116.161-48.617-4.575 0-11.969 0.707-22.176 2.116 43.647-29.241 91.519-43.684 143.266-43.684 80.607 0 145.373 28.183 193.95 85.254s73.216 120.486 73.216 190.593v11.979c19.362 12.683 34.849 27.128 46.463 43.334-16.191-7.047-34.494-11.626-54.206-13.388z" />
<glyph unicode="&#xe635;" glyph-name="view_mode_1" d="M768 192h256v-256h-256v256zM768 576h256v-256h-256v256zM768 960h256v-256h-256v256zM384 192h256v-256h-256v256zM384 576h256v-256h-256v256zM384 960h256v-256h-256v256zM0 192h256v-256h-256v256zM0 576h256v-256h-256v256zM0 960h256v-256h-256v256z" />
<glyph unicode="&#xe636;" glyph-name="view_mode_2" d="M384 192h640v-256h-640v256zM384 576h640v-256h-640v256zM384 960h640v-256h-640v256zM0 192h256v-256h-256v256zM0 576h256v-256h-256v256zM0 960h256v-256h-256v256z" />
<glyph unicode="&#xe637;" horiz-adv-x="1609" d="M0 886.857c0 40.393 32.746 73.143 73.143 73.143h1462.857c40.397 0 73.143-32.75 73.143-73.143v-877.714c0-40.393-32.746-73.143-73.143-73.143h-1462.857c-40.397 0-73.143 32.75-73.143 73.143v877.714z" />
<glyph unicode="&#xe638;" horiz-adv-x="1609" d="M1007.419 596.268v0c-9.285 1.946-31.766 3.401-43.498 3.401-50.348 0-130.019-16.062-140.778-90.079v-13.144c0-3.891 4.89-18.992 5.866-20.937 3.423-5.848 7.823-13.151 13.202-18.008 12.219-12.672 27.37-21.431 40.075-27.761 12.222-6.331 26.887-12.16 40.090-19.953 10.748-6.341 17.108-14.128 17.108-23.376 0-26.778-44.482-29.213-52.304-29.213l-16.135 0.483c-22.967 1.474-48.388 9.739-70.875 19.482l-11.725-65.251c29.817-10.704 63.056-15.579 93.842-15.579 10.759 0 26.887 1.946 37.153 2.918h2.447c30.303 6.821 66.472 14.607 91.886 52.1 9.783 15.097 12.712 30.186 12.712 45.765 0 79.367-116.824 79.367-116.824 116.378 0 15.089 22.488 24.338 35.196 24.338 4.886 0 13.685 0.973 14.661 0.973 10.752 0 26.394-1.957 36.169-3.891 9.779-1.949 20.045-6.813 32.26-10.225l11.242 61.341c-0.486 0.497-0.486 0.98-0.973 1.463-9.285 3.902-21.511 6.338-30.797 8.777zM426.737 594.794h-136.861c-0.494-0.483-0.494-1.456-0.984-1.946v-4.374c22.491-5.358 47.912-12.661 70.875-23.376 5.866-2.929 13.689-3.891 16.622-9.242 7.333-12.668 8.799-28.259 12.709-41.882l61.831-213.5h87.98l131.734 293.837h-88.47l-81.627-199.142c0 0-32.26 147.046-32.75 148.502-5.376 16.552-1.957 42.854-27.864 49.178-4.396 0.98-8.799 1.463-13.195 1.946zM787.95 594.794h-83.094l-52.297-294.078h83.094l52.297 294.078zM1253.281 594.311h-69.895c-8.799 0-18.575-2.436-25.904-7.786-10.759-8.283-13.692-18.026-18.088-28.24-32.75-69.625-64.519-139.739-96.779-210.348-6.846-14.607-14.179-32.124-21.998-47.221h87.98c2.933 6.81 13.689 36.027 16.622 42.357 0.486 1.463 1.957 1.946 2.933 1.946l103.135-0.483c0.976 0 2.447-0.49 2.447-1.946 3.909-13.645 6.839-28.251 9.776-41.874h76.741l-66.97 293.595zM1219.555 405.394h-68.429l43.992 108.098 24.437-108.098z" />
<glyph unicode="&#xe639;" glyph-name="vk" horiz-adv-x="901" d="M431.030 955.341c10.785 6.214 28.275 6.214 39.059 0l411.501-236.806c10.785-6.205 19.53-21.334 19.53-33.784v-473.502c0-12.45-8.745-27.578-19.53-33.784l-411.501-236.806c-10.785-6.214-28.275-6.214-39.059 0l-411.501 236.806c-10.785 6.205-19.53 21.334-19.53 33.784v473.502c0 12.45 8.745 27.578 19.53 33.784l411.501 236.806zM318.849 272.663c18.7-2.707 49.5-5.411 91.812-5.411 83.651 0 131.389 11.907 157.884 33.012 22.71 18.401 37.849 43.839 37.849 75.76 0 45.525-30.82 77.302-72.456 88.984v1.112c29.225 15.567 48.208 49.641 48.208 87.194 0 37.988-18.44 63.105-43.966 76.757-26.614 15.831-58.184 20.752-110.42 20.752-42.361 0-86.911-3.281-108.911-7.651v-370.508zM401.922 587.727c7.303 1.255 17.973 2.482 36.51 2.482 38.756 0 60.641-16.871 60.641-48.787 0-31.293-24.132-51.941-69.067-51.941h-28.084v98.247zM401.922 428.863h29.207c50.696 0 88.752-14.115 88.752-49.703 0-37.151-38.056-50.758-81.127-50.758-16.23 0-27.468 0-36.831 1.047v99.414z" />
</font>
</defs>
</svg>
